HIERARCHY
ROOT Hips
{
	OFFSET -0.001795 -0.223333 0.028219
	CHANNELS 6 Xposition Yposition Zposition Zrotation Yrotation Xrotation 
	JOINT LeftUpLeg
	{
		OFFSET 0.069520 -0.091406 -0.006815
		CHANNELS 3 Zrotation Yrotation Xrotation
		JOINT LeftLeg
		{
			OFFSET 0.034277 -0.375199 -0.004496
			CHANNELS 3 Zrotation Yrotation Xrotation
			JOINT LeftFoot
			{
				OFFSET -0.013596 -0.397961 -0.043693
				CHANNELS 3 Zrotation Yrotation Xrotation
				JOINT LeftToe
				{
					OFFSET 0.026358 -0.055791 0.119288
					CHANNELS 3 Zrotation Yrotation Xrotation
					End Site
					{
						OFFSET 0.000000 0.000000 0.000000
					}
				}
			}
		}
	}
	JOINT RightUpLeg
	{
		OFFSET -0.067670 -0.090522 -0.004320
		CHANNELS 3 Zrotation Yrotation Xrotation
		JOINT RightLeg
		{
			OFFSET -0.038290 -0.382569 -0.008850
			CHANNELS 3 Zrotation Yrotation Xrotation
			JOINT RightFoot
			{
				OFFSET 0.015774 -0.398415 -0.042312
				CHANNELS 3 Zrotation Yrotation Xrotation
				JOINT RightToe
				{
					OFFSET -0.025372 -0.048144 0.123348
					CHANNELS 3 Zrotation Yrotation Xrotation
					End Site
					{
						OFFSET 0.000000 0.000000 0.000000
					}
				}
			}
		}
	}
	JOINT Spine
	{
		OFFSET -0.002533 0.108963 -0.026696
		CHANNELS 3 Zrotation Yrotation Xrotation
		JOINT Spine1
		{
			OFFSET 0.005487 0.135180 0.001092
			CHANNELS 3 Zrotation Yrotation Xrotation
			JOINT Spine2
			{
				OFFSET 0.001457 0.052922 0.025425
				CHANNELS 3 Zrotation Yrotation Xrotation
				JOINT Neck
				{
					OFFSET -0.002778 0.213870 -0.042857
					CHANNELS 3 Zrotation Yrotation Xrotation
					JOINT Head
					{
						OFFSET 0.005152 0.064970 0.051349
						CHANNELS 3 Zrotation Yrotation Xrotation
						End Site
						{
							OFFSET 0.000000 0.000000 0.000000
						}
					}
				}
				JOINT LeftShoulder
				{
					OFFSET 0.078845 0.121749 -0.034090
					CHANNELS 3 Zrotation Yrotation Xrotation
					JOINT LeftArm
					{
						OFFSET 0.090977 0.030469 -0.008868
						CHANNELS 3 Zrotation Yrotation Xrotation
						JOINT LeftForeArm
						{
							OFFSET 0.259612 -0.012772 -0.027456
							CHANNELS 3 Zrotation Yrotation Xrotation
							JOINT LeftHand
							{
								OFFSET 0.249234 0.008986 -0.001171
								CHANNELS 3 Zrotation Yrotation Xrotation
								End Site
								{
									OFFSET 0.000000 0.000000 0.000000
								}
							}
						}
					}
				}
				JOINT RightShoulder
				{
					OFFSET -0.081759 0.118833 -0.038615
					CHANNELS 3 Zrotation Yrotation Xrotation
					JOINT RightArm
					{
						OFFSET -0.096012 0.032551 -0.009143
						CHANNELS 3 Zrotation Yrotation Xrotation
						JOINT RightForeArm
						{
							OFFSET -0.253742 -0.013329 -0.021401
							CHANNELS 3 Zrotation Yrotation Xrotation
							JOINT RightHand
							{
								OFFSET -0.255298 0.007772 -0.005559
								CHANNELS 3 Zrotation Yrotation Xrotation
								End Site
								{
									OFFSET 0.000000 0.000000 0.000000
								}
							}
						}
					}
				}
			}
		}
	}
}
MOTION
Frames: 10
Frame Time: 0.050000
0.000000 0.949702 0.000000 -3.118247 10.453599 -5.073994 2.396112 0.469901 11.186923 -2.550142 0.230678 -0.397957 0.546342 4.585449 6.863587 0.000000 0.000000 0.000000 -2.804705 1.022229 -16.720993 6.629337 -1.996678 22.003324 -8.067583 -18.980958 9.199659 0.000000 0.000000 0.000000 3.849142 -1.632132 17.804736 -5.679619 2.322677 -21.382614 -3.642131 0.379738 26.493409 11.759133 -4.256471 -26.992333 0.000000 0.000000 0.000000 -17.158294 -22.138888 8.688516 -34.713279 -33.159083 3.362314 -1.546343 -44.586085 1.991763 0.000000 0.000000 0.000000 22.887933 9.018469 6.226759 42.711433 39.986722 7.335981 0.714873 47.375491 3.491305 0.000000 0.000000 0.000000 
0.001792 0.947671 0.018915 -3.211686 9.956378 -4.608338 2.847494 0.448087 11.890730 -3.318772 0.292622 0.091260 1.148006 5.164826 5.862441 0.000000 0.000000 0.000000 -3.006689 1.107650 -19.091279 7.359946 -1.779006 16.193822 -9.631809 -21.348316 14.024928 0.000000 0.000000 0.000000 3.324002 -1.538925 17.752065 -5.620614 2.238239 -22.510767 -3.522948 0.060105 27.081538 11.331744 -3.668848 -29.062459 0.000000 0.000000 0.000000 -15.028737 -21.281257 8.244000 -36.751605 -34.601479 4.003490 -0.677868 -45.513982 1.785459 0.000000 0.000000 0.000000 22.312181 9.367753 6.186334 43.926353 41.460526 8.377747 1.962527 47.862047 4.044045 0.000000 0.000000 0.000000 
0.002542 0.945106 0.040241 -2.662940 9.967139 -4.213280 2.562066 0.534013 13.305186 -3.578093 0.316930 -0.106190 1.278883 5.032513 5.053305 0.000000 0.000000 0.000000 -3.135054 1.070167 -18.649731 5.518301 -0.914387 7.939856 -8.922294 -19.946120 15.661677 0.000000 0.000000 0.000000 3.650657 -1.564022 17.537254 -6.152637 2.367467 -22.526152 -3.273040 0.954236 26.959299 10.670689 -3.346467 -27.989528 0.000000 0.000000 0.000000 -15.090279 -20.979087 7.929912 -38.420056 -34.872343 4.383054 -1.565545 -46.652868 2.165242 0.000000 0.000000 0.000000 19.492845 7.383112 4.974092 47.531338 41.021694 9.419560 3.701992 48.395265 5.181474 0.000000 0.000000 0.000000 
0.001921 0.940568 0.064212 -2.918291 11.084726 -4.956965 2.799921 0.501529 15.398172 -3.055542 0.263088 0.259135 2.014683 5.806222 3.733911 0.000000 0.000000 0.000000 -3.580238 0.907792 -17.665454 5.249669 -0.730816 1.180847 -10.176858 -21.404462 19.687016 0.000000 0.000000 0.000000 4.996080 -1.899217 18.321385 -7.925598 2.815538 -22.826062 -2.732192 0.410951 27.195751 11.556526 -3.828912 -28.183954 0.000000 0.000000 0.000000 -13.434140 -20.915906 7.733783 -39.852624 -34.919426 4.604432 -3.327435 -48.413111 3.023980 0.000000 0.000000 0.000000 20.569590 6.405891 4.602966 47.142642 41.232135 9.283484 4.923038 47.966982 5.697911 0.000000 0.000000 0.000000 
-0.000445 0.935693 0.091156 -2.152977 11.512497 -4.524993 2.632309 0.535452 16.497539 -3.132297 0.264473 0.563769 1.999602 5.803374 3.807030 0.000000 0.000000 0.000000 -4.198218 0.783668 -17.599871 4.959582 -0.665400 -1.193209 -9.818964 -20.312243 25.396475 0.000000 0.000000 0.000000 4.961315 -1.879196 18.133764 -7.665006 2.795924 -22.277195 -3.540885 0.865772 26.011354 12.159917 -4.258587 -27.023184 0.000000 0.000000 0.000000 -13.614442 -20.522024 7.406306 -40.812397 -33.814817 4.504998 -5.333166 -50.277194 3.982851 0.000000 0.000000 0.000000 21.859676 6.166294 4.736202 47.100919 38.515944 8.030438 5.276589 50.273595 6.332463 0.000000 0.000000 0.000000 
-0.004551 0.931252 0.120905 -1.968721 12.733574 -4.459228 2.937010 0.430068 17.776257 -2.666454 0.207543 1.200824 2.328056 6.406051 3.834685 0.000000 0.000000 0.000000 -3.657228 0.817615 -17.033488 4.395890 -0.608031 -0.209755 -9.809202 -19.889602 28.511221 0.000000 0.000000 0.000000 5.730841 -2.041775 18.095027 -8.810788 3.045996 -22.774144 -2.876120 0.274384 26.119175 12.689874 -4.484215 -27.444254 0.000000 0.000000 0.000000 -14.568037 -20.823098 7.567481 -40.683258 -32.463115 4.074021 -8.584212 -52.544896 5.758640 0.000000 0.000000 0.000000 22.324701 5.903846 4.683072 45.442530 37.147642 6.888152 7.760749 50.500473 7.505547 0.000000 0.000000 0.000000 
-0.010466 0.926745 0.153667 -1.903074 14.280823 -4.263552 3.825721 0.153648 18.999004 -2.308809 0.155553 1.792924 2.212481 6.389045 4.263596 0.000000 0.000000 0.000000 -3.288811 0.835764 -17.296570 4.328208 -0.657794 3.519078 -10.213544 -20.161627 28.500438 0.000000 0.000000 0.000000 6.484731 -2.140435 17.537331 -9.010757 3.157721 -22.083658 -3.123188 -0.545300 25.662325 12.994612 -4.613078 -27.561394 0.000000 0.000000 0.000000 -15.177410 -19.663122 7.006221 -41.067691 -31.489037 3.853253 -10.978002 -53.498049 7.057900 0.000000 0.000000 0.000000 22.090764 5.519062 4.438349 46.431104 35.755353 6.613614 8.682014 50.419159 7.949656 0.000000 0.000000 0.000000 
-0.018199 0.923916 0.189458 -2.072289 15.635993 -3.964116 5.193150 -0.244270 19.445083 -2.382601 0.102382 3.994168 2.434898 7.000187 4.772960 0.000000 0.000000 0.000000 -3.004999 0.858372 -18.021930 5.094821 -0.985654 8.421080 -10.496257 -20.585646 25.782175 0.000000 0.000000 0.000000 7.291599 -2.331151 17.539763 -9.678840 3.259495 -22.768291 -2.135741 -1.364124 25.829502 12.597232 -4.185184 -28.637805 0.000000 0.000000 0.000000 -17.208776 -18.972248 6.753181 -39.931199 -29.559907 3.107782 -12.855854 -54.506117 8.178419 0.000000 0.000000 0.000000 21.692150 4.817074 4.003801 46.112490 36.003511 6.603266 10.213949 48.000623 8.134760 0.000000 0.000000 0.000000 
-0.027099 0.923779 0.226833 -2.507875 16.289015 -3.772911 7.249860 -0.724820 18.782437 -2.959501 0.055498 7.642805 2.042170 7.631566 7.836475 0.000000 0.000000 0.000000 -2.239815 0.978517 -18.008794 6.533447 -1.555286 11.777004 -11.293636 -22.107837 22.389041 0.000000 0.000000 0.000000 8.264987 -2.453258 17.055080 -9.393718 3.234428 -22.282958 -2.674794 -1.773447 25.473771 13.175118 -4.508985 -28.710093 0.000000 0.000000 0.000000 -18.295293 -18.735704 6.661473 -39.339513 -29.044821 2.926620 -13.256150 -52.652628 8.058391 0.000000 0.000000 0.000000 22.528126 5.208714 4.309472 45.024617 36.619078 6.543403 8.679660 44.686757 6.689828 0.000000 0.000000 0.000000 
-0.036602 0.925505 0.264080 -2.283067 16.273010 -3.283029 8.749492 -0.936510 16.767099 -3.785680 -0.022705 12.978030 1.173086 8.245921 13.020394 0.000000 0.000000 0.000000 -1.868302 1.011635 -16.756760 7.850307 -1.982514 12.624184 -11.454635 -22.934943 19.297770 0.000000 0.000000 0.000000 8.259924 -2.421252 16.815090 -9.205044 3.205106 -21.999866 -3.014207 -1.867600 24.918378 13.821376 -4.952181 -28.389815 0.000000 0.000000 0.000000 -18.227963 -18.194402 6.407488 -39.175491 -28.571040 2.793393 -12.899268 -51.393171 7.667447 0.000000 0.000000 0.000000 22.729879 5.230234 4.276960 44.973662 36.645072 6.592647 7.274850 41.806313 5.552264 0.000000 0.000000 0.000000 
